#N canvas 827 239 527 327 12;
#X obj 82 228 moses 64;
#X obj 82 60 ctlin;
#X obj 82 329 bng 25 250 50 0 empty empty empty 17 7 0 10 #333333 #eeeeee #e4e4e4;
#X obj 126 329 bng 25 250 50 0 empty empty empty 17 7 0 10 #333333 #eeeeee #e4e4e4;
#X obj 102 446 +;
#X obj 182 94 nbx 4 18 -1e+37 1e+37 0 0 empty empty empty 0 -8 0 10 #333333 #e4e4e4 #e4e4e4 0 256;
#X obj 82 174 spigot;
#X obj 84 612 ctlout;
#X obj 182 137 == 16;
#X obj 171 481 nbx 4 18 -1e+37 1e+37 0 0 empty empty empty 0 -8 0 10 #333333 #e4e4e4 #e4e4e4 0 256;
#X obj 206 299 loadbang;
#X obj 82 281 spigot;
#X obj 137 281 spigot;
#X obj 323 167 int;
#X obj 171 446 int;
#X obj 224 232 > 0;
#X obj 323 281 < 127;
#X obj 171 534 knob 50 0 127 0 0 empty empty #333333 #696969 #EEEEEE 1 0 0 0 1 270 0 0 0;
#X obj 470 228 moses 64;
#X obj 470 60 ctlin;
#X obj 470 329 bng 25 250 50 0 empty empty empty 17 7 0 10 #333333 #eeeeee #e4e4e4;
#X obj 514 329 bng 25 250 50 0 empty empty empty 17 7 0 10 #333333 #eeeeee #e4e4e4;
#X obj 490 446 +;
#X obj 570 94 nbx 4 18 -1e+37 1e+37 0 0 empty empty empty 0 -8 0 10 #333333 #e4e4e4 #e4e4e4 0 256;
#X obj 470 174 spigot;
#X obj 472 612 ctlout;
#X obj 559 481 nbx 4 18 -1e+37 1e+37 0 0 empty empty empty 0 -8 0 10 #333333 #e4e4e4 #e4e4e4 0 256;
#X obj 594 299 loadbang;
#X obj 470 281 spigot;
#X obj 525 281 spigot;
#X obj 711 167 int;
#X obj 559 446 int;
#X obj 612 232 > 0;
#X obj 711 281 < 127;
#X obj 559 534 knob 50 0 127 0 0 empty empty #333333 #696969 #EEEEEE 1 0 0 0 1 270 0 0 0;
#X obj 850 228 moses 64;
#X obj 850 60 ctlin;
#X obj 850 329 bng 25 250 50 0 empty empty empty 17 7 0 10 #333333 #eeeeee #e4e4e4;
#X obj 894 329 bng 25 250 50 0 empty empty empty 17 7 0 10 #333333 #eeeeee #e4e4e4;
#X obj 870 446 +;
#X obj 950 94 nbx 4 18 -1e+37 1e+37 0 0 empty empty empty 0 -8 0 10 #333333 #e4e4e4 #e4e4e4 0 256;
#X obj 850 174 spigot;
#X obj 852 612 ctlout;
#X obj 939 481 nbx 4 18 -1e+37 1e+37 0 0 empty empty empty 0 -8 0 10 #333333 #e4e4e4 #e4e4e4 0 256;
#X obj 974 299 loadbang;
#X obj 850 281 spigot;
#X obj 905 281 spigot;
#X obj 1091 167 int;
#X obj 939 446 int;
#X obj 992 232 > 0;
#X obj 1091 281 < 127;
#X obj 939 534 knob 50 0 127 0 0 empty empty #333333 #696969 #EEEEEE 1 0 0 0 1 270 0 0 0;
#X obj 1238 228 moses 64;
#X obj 1238 60 ctlin;
#X obj 1238 329 bng 25 250 50 0 empty empty empty 17 7 0 10 #333333 #eeeeee #e4e4e4;
#X obj 1282 329 bng 25 250 50 0 empty empty empty 17 7 0 10 #333333 #eeeeee #e4e4e4;
#X obj 1258 446 +;
#X obj 1338 94 nbx 4 18 -1e+37 1e+37 0 0 empty empty empty 0 -8 0 10 #333333 #e4e4e4 #e4e4e4 0 256;
#X obj 1238 174 spigot;
#X obj 1240 612 ctlout;
#X obj 1327 481 nbx 4 18 -1e+37 1e+37 0 0 empty empty empty 0 -8 0 10 #333333 #e4e4e4 #e4e4e4 0 256;
#X obj 1362 299 loadbang;
#X obj 1238 281 spigot;
#X obj 1293 281 spigot;
#X obj 1479 167 int;
#X obj 1327 446 int;
#X obj 1380 232 > 0;
#X obj 1479 281 < 127;
#X obj 1327 534 knob 50 0 127 0 0 empty empty #333333 #696969 #EEEEEE 1 0 0 0 1 270 0 0 0;
#X obj 82 869 moses 64;
#X obj 82 701 ctlin;
#X obj 82 970 bng 25 250 50 0 empty empty empty 17 7 0 10 #333333 #eeeeee #e4e4e4;
#X obj 126 970 bng 25 250 50 0 empty empty empty 17 7 0 10 #333333 #eeeeee #e4e4e4;
#X obj 102 1087 +;
#X obj 182 735 nbx 4 18 -1e+37 1e+37 0 0 empty empty empty 0 -8 0 10 #333333 #e4e4e4 #e4e4e4 0 256;
#X obj 82 815 spigot;
#X obj 84 1253 ctlout;
#X obj 171 1122 nbx 4 18 -1e+37 1e+37 0 0 empty empty empty 0 -8 0 10 #333333 #e4e4e4 #e4e4e4 0 256;
#X obj 206 940 loadbang;
#X obj 82 922 spigot;
#X obj 137 922 spigot;
#X obj 323 808 int;
#X obj 171 1087 int;
#X obj 224 873 > 0;
#X obj 323 922 < 127;
#X obj 171 1175 knob 50 0 127 0 0 empty empty #333333 #696969 #EEEEEE 1 0 0 0 1 270 0 0 0;
#X obj 470 869 moses 64;
#X obj 470 701 ctlin;
#X obj 470 970 bng 25 250 50 0 empty empty empty 17 7 0 10 #333333 #eeeeee #e4e4e4;
#X obj 514 970 bng 25 250 50 0 empty empty empty 17 7 0 10 #333333 #eeeeee #e4e4e4;
#X obj 490 1087 +;
#X obj 570 735 nbx 4 18 -1e+37 1e+37 0 0 empty empty empty 0 -8 0 10 #333333 #e4e4e4 #e4e4e4 0 256;
#X obj 470 815 spigot;
#X obj 472 1253 ctlout;
#X obj 559 1122 nbx 4 18 -1e+37 1e+37 0 0 empty empty empty 0 -8 0 10 #333333 #e4e4e4 #e4e4e4 0 256;
#X obj 594 940 loadbang;
#X obj 470 922 spigot;
#X obj 525 922 spigot;
#X obj 711 808 int;
#X obj 559 1087 int;
#X obj 612 873 > 0;
#X obj 711 922 < 127;
#X obj 559 1175 knob 50 0 127 0 0 empty empty #333333 #696969 #EEEEEE 1 0 0 0 1 270 0 0 0;
#X obj 850 869 moses 64;
#X obj 850 701 ctlin;
#X obj 850 970 bng 25 250 50 0 empty empty empty 17 7 0 10 #333333 #eeeeee #e4e4e4;
#X obj 894 970 bng 25 250 50 0 empty empty empty 17 7 0 10 #333333 #eeeeee #e4e4e4;
#X obj 870 1087 +;
#X obj 950 735 nbx 4 18 -1e+37 1e+37 0 0 empty empty empty 0 -8 0 10 #333333 #e4e4e4 #e4e4e4 0 256;
#X obj 850 815 spigot;
#X obj 852 1253 ctlout;
#X obj 939 1122 nbx 4 18 -1e+37 1e+37 0 0 empty empty empty 0 -8 0 10 #333333 #e4e4e4 #e4e4e4 0 256;
#X obj 974 940 loadbang;
#X obj 850 922 spigot;
#X obj 905 922 spigot;
#X obj 1091 808 int;
#X obj 939 1087 int;
#X obj 992 873 > 0;
#X obj 1091 922 < 127;
#X obj 939 1175 knob 50 0 127 0 0 empty empty #333333 #696969 #EEEEEE 1 0 0 0 1 270 0 0 0;
#X obj 1249 869 moses 64;
#X obj 1249 701 ctlin;
#X obj 1249 970 bng 25 250 50 0 empty empty empty 17 7 0 10 #333333 #eeeeee #e4e4e4;
#X obj 1293 970 bng 25 250 50 0 empty empty empty 17 7 0 10 #333333 #eeeeee #e4e4e4;
#X obj 1269 1087 +;
#X obj 1349 735 nbx 4 18 -1e+37 1e+37 0 0 empty empty empty 0 -8 0 10 #333333 #e4e4e4 #e4e4e4 0 256;
#X obj 1249 815 spigot;
#X obj 1251 1253 ctlout;
#X obj 1338 1122 nbx 4 18 -1e+37 1e+37 0 0 empty empty empty 0 -8 0 10 #333333 #e4e4e4 #e4e4e4 0 256;
#X obj 1373 940 loadbang;
#X obj 1249 922 spigot;
#X obj 1304 922 spigot;
#X obj 1490 808 int;
#X obj 1338 1087 int;
#X obj 1391 873 > 0;
#X obj 1338 1175 knob 50 0 127 0 0 empty empty #333333 #696969 #EEEEEE 1 0 0 0 1 270 0 0 0;
#X obj 570 137 == 17;
#X obj 950 137 == 18;
#X obj 1338 137 == 19;
#X obj 182 778 == 20;
#X obj 570 778 == 21;
#X obj 950 778 == 22;
#X obj 1349 778 == 23;
#X msg 83 365 -3;
#X msg 128 365 3;
#X msg 471 365 -3;
#X msg 516 365 3;
#X msg 851 365 -3;
#X msg 896 365 3;
#X msg 1239 365 -3;
#X msg 1284 365 3;
#X msg 83 1006 -3;
#X msg 128 1006 3;
#X msg 471 1006 -3;
#X msg 516 1006 3;
#X msg 851 1006 -3;
#X msg 896 1006 3;
#X obj 1441 1253 /;
#X obj 1474 1316 ctlout;
#X obj 1491 1118 int 8;
#X obj 1549 1030 loadbang;
#X obj 1018 1253 /;
#X obj 1028 1304 ctlout;
#X obj 1060 1157 int 8;
#X obj 1118 1069 loadbang;
#X obj 624 1253 /;
#X obj 644 1304 ctlout;
#X obj 676 1157 int 8;
#X obj 734 1069 loadbang;
#X obj 245 1253 /;
#X obj 265 1304 ctlout;
#X obj 297 1157 int 8;
#X obj 355 1069 loadbang;
#X obj 1490 873 < 127;
#X msg 1295 1006 3;
#X msg 1250 1006 -3;
#X obj 236 612 /;
#X obj 256 663 ctlout;
#X obj 288 516 int 8;
#X obj 346 428 loadbang;
#X obj 635 612 /;
#X obj 655 663 ctlout;
#X obj 687 516 int 8;
#X obj 745 428 loadbang;
#X obj 1019 612 /;
#X obj 1039 663 ctlout;
#X obj 1071 516 int 8;
#X obj 1129 428 loadbang;
#X obj 1429 612 /;
#X obj 1449 663 ctlout;
#X obj 1481 516 int 8;
#X obj 1539 428 loadbang;
#X obj 1850 142 notein;
#X obj 1849 189 noteout;
#X connect 0 0 11 0;
#X connect 0 1 12 0;
#X connect 1 0 6 0;
#X connect 1 1 5 0;
#X connect 1 1 7 1;
#X connect 1 1 177 1;
#X connect 1 2 177 2;
#X connect 2 0 143 0;
#X connect 3 0 144 0;
#X connect 4 0 14 0;
#X connect 5 0 8 0;
#X connect 6 0 0 0;
#X connect 8 0 6 1;
#X connect 9 0 13 0;
#X connect 9 0 17 0;
#X connect 10 0 3 0;
#X connect 11 0 2 0;
#X connect 12 0 3 0;
#X connect 13 0 15 0;
#X connect 13 0 16 0;
#X connect 14 0 4 1;
#X connect 14 0 9 0;
#X connect 15 0 11 1;
#X connect 16 0 12 1;
#X connect 17 0 7 0;
#X connect 17 0 176 0;
#X connect 18 0 28 0;
#X connect 18 1 29 0;
#X connect 19 0 24 0;
#X connect 19 1 23 0;
#X connect 19 1 25 1;
#X connect 19 1 181 1;
#X connect 19 2 181 2;
#X connect 20 0 145 0;
#X connect 21 0 146 0;
#X connect 22 0 31 0;
#X connect 23 0 136 0;
#X connect 24 0 18 0;
#X connect 26 0 30 0;
#X connect 26 0 34 0;
#X connect 27 0 21 0;
#X connect 28 0 20 0;
#X connect 29 0 21 0;
#X connect 30 0 32 0;
#X connect 30 0 33 0;
#X connect 31 0 22 1;
#X connect 31 0 26 0;
#X connect 32 0 28 1;
#X connect 33 0 29 1;
#X connect 34 0 25 0;
#X connect 34 0 180 0;
#X connect 35 0 45 0;
#X connect 35 1 46 0;
#X connect 36 0 41 0;
#X connect 36 1 40 0;
#X connect 36 1 42 1;
#X connect 36 1 185 1;
#X connect 36 2 185 2;
#X connect 37 0 147 0;
#X connect 38 0 148 0;
#X connect 39 0 48 0;
#X connect 40 0 137 0;
#X connect 41 0 35 0;
#X connect 43 0 47 0;
#X connect 43 0 51 0;
#X connect 44 0 38 0;
#X connect 45 0 37 0;
#X connect 46 0 38 0;
#X connect 47 0 49 0;
#X connect 47 0 50 0;
#X connect 48 0 39 1;
#X connect 48 0 43 0;
#X connect 49 0 45 1;
#X connect 50 0 46 1;
#X connect 51 0 42 0;
#X connect 51 0 184 0;
#X connect 52 0 62 0;
#X connect 52 1 63 0;
#X connect 53 0 58 0;
#X connect 53 1 57 0;
#X connect 53 1 59 1;
#X connect 53 1 189 1;
#X connect 53 2 189 2;
#X connect 54 0 149 0;
#X connect 55 0 150 0;
#X connect 56 0 65 0;
#X connect 57 0 138 0;
#X connect 58 0 52 0;
#X connect 60 0 64 0;
#X connect 60 0 68 0;
#X connect 61 0 55 0;
#X connect 62 0 54 0;
#X connect 63 0 55 0;
#X connect 64 0 66 0;
#X connect 64 0 67 0;
#X connect 65 0 56 1;
#X connect 65 0 60 0;
#X connect 66 0 62 1;
#X connect 67 0 63 1;
#X connect 68 0 59 0;
#X connect 68 0 188 0;
#X connect 69 0 79 0;
#X connect 69 1 80 0;
#X connect 70 0 75 0;
#X connect 70 1 74 0;
#X connect 70 1 76 1;
#X connect 70 1 170 1;
#X connect 70 2 170 2;
#X connect 71 0 151 0;
#X connect 72 0 152 0;
#X connect 73 0 82 0;
#X connect 74 0 139 0;
#X connect 75 0 69 0;
#X connect 77 0 81 0;
#X connect 77 0 85 0;
#X connect 78 0 72 0;
#X connect 79 0 71 0;
#X connect 80 0 72 0;
#X connect 81 0 83 0;
#X connect 81 0 84 0;
#X connect 82 0 73 1;
#X connect 82 0 77 0;
#X connect 83 0 79 1;
#X connect 84 0 80 1;
#X connect 85 0 76 0;
#X connect 85 0 169 0;
#X connect 86 0 96 0;
#X connect 86 1 97 0;
#X connect 87 0 92 0;
#X connect 87 1 91 0;
#X connect 87 1 93 1;
#X connect 87 1 166 1;
#X connect 87 2 166 2;
#X connect 88 0 153 0;
#X connect 89 0 154 0;
#X connect 90 0 99 0;
#X connect 91 0 140 0;
#X connect 92 0 86 0;
#X connect 94 0 98 0;
#X connect 94 0 102 0;
#X connect 95 0 89 0;
#X connect 96 0 88 0;
#X connect 97 0 89 0;
#X connect 98 0 100 0;
#X connect 98 0 101 0;
#X connect 99 0 90 1;
#X connect 99 0 94 0;
#X connect 100 0 96 1;
#X connect 101 0 97 1;
#X connect 102 0 93 0;
#X connect 102 0 165 0;
#X connect 103 0 113 0;
#X connect 103 1 114 0;
#X connect 104 0 109 0;
#X connect 104 1 108 0;
#X connect 104 1 110 1;
#X connect 104 1 162 1;
#X connect 104 2 162 2;
#X connect 105 0 155 0;
#X connect 106 0 156 0;
#X connect 107 0 116 0;
#X connect 108 0 141 0;
#X connect 109 0 103 0;
#X connect 111 0 115 0;
#X connect 111 0 119 0;
#X connect 112 0 106 0;
#X connect 113 0 105 0;
#X connect 114 0 106 0;
#X connect 115 0 117 0;
#X connect 115 0 118 0;
#X connect 116 0 107 1;
#X connect 116 0 111 0;
#X connect 117 0 113 1;
#X connect 118 0 114 1;
#X connect 119 0 110 0;
#X connect 119 0 161 0;
#X connect 120 0 130 0;
#X connect 120 1 131 0;
#X connect 121 0 126 0;
#X connect 121 1 125 0;
#X connect 121 1 127 1;
#X connect 121 1 158 1;
#X connect 121 2 158 2;
#X connect 122 0 175 0;
#X connect 123 0 174 0;
#X connect 124 0 133 0;
#X connect 125 0 142 0;
#X connect 126 0 120 0;
#X connect 128 0 132 0;
#X connect 128 0 135 0;
#X connect 129 0 123 0;
#X connect 130 0 122 0;
#X connect 131 0 123 0;
#X connect 132 0 134 0;
#X connect 132 0 173 0;
#X connect 133 0 124 1;
#X connect 133 0 128 0;
#X connect 134 0 130 1;
#X connect 135 0 127 0;
#X connect 135 0 157 0;
#X connect 136 0 24 1;
#X connect 137 0 41 1;
#X connect 138 0 58 1;
#X connect 139 0 75 1;
#X connect 140 0 92 1;
#X connect 141 0 109 1;
#X connect 142 0 126 1;
#X connect 143 0 4 0;
#X connect 144 0 4 0;
#X connect 145 0 22 0;
#X connect 146 0 22 0;
#X connect 147 0 39 0;
#X connect 148 0 39 0;
#X connect 149 0 56 0;
#X connect 150 0 56 0;
#X connect 151 0 73 0;
#X connect 152 0 73 0;
#X connect 153 0 90 0;
#X connect 154 0 90 0;
#X connect 155 0 107 0;
#X connect 156 0 107 0;
#X connect 157 0 158 0;
#X connect 159 0 157 1;
#X connect 160 0 159 0;
#X connect 161 0 162 0;
#X connect 163 0 161 1;
#X connect 164 0 163 0;
#X connect 165 0 166 0;
#X connect 167 0 165 1;
#X connect 168 0 167 0;
#X connect 169 0 170 0;
#X connect 171 0 169 1;
#X connect 172 0 171 0;
#X connect 173 0 131 1;
#X connect 174 0 124 0;
#X connect 175 0 124 0;
#X connect 176 0 177 0;
#X connect 178 0 176 1;
#X connect 179 0 178 0;
#X connect 180 0 181 0;
#X connect 182 0 180 1;
#X connect 183 0 182 0;
#X connect 184 0 185 0;
#X connect 186 0 184 1;
#X connect 187 0 186 0;
#X connect 188 0 189 0;
#X connect 190 0 188 1;
#X connect 191 0 190 0;
#X connect 192 0 193 0;
#X connect 192 1 193 1;
